<mxfile host="Electron" modified="2024-05-25T13:49:32.765Z" agent="Mozilla/5.0 (Windows NT 10.0; Win64; x64) AppleWebKit/537.36 (KHTML, like Gecko) draw.io/24.4.8 Chrome/124.0.6367.207 Electron/30.0.6 Safari/537.36" etag="D5mamiNA9qIc4eAgT0DZ" version="24.4.8" type="device">
  <diagram name="Page-1" id="EqseifGwV56-3-2FdVSY">
    <mxGraphModel dx="989" dy="582" grid="1" gridSize="10" guides="1" tooltips="1" connect="1" arrows="1" fold="1" page="1" pageScale="1" pageWidth="827" pageHeight="583" math="0" shadow="0">
      <root>
        <mxCell id="0" />
        <mxCell id="1" parent="0" />
        <mxCell id="JU1ljmJUh9Om__ZYhvz9-1" value="Publish mesage" style="rounded=1;whiteSpace=wrap;html=1;fillColor=#dae8fc;strokeColor=#6c8ebf;fontSize=18;" vertex="1" parent="1">
          <mxGeometry x="460" y="100" width="120" height="60" as="geometry" />
        </mxCell>
        <mxCell id="JU1ljmJUh9Om__ZYhvz9-2" value="HMI structure" style="text;html=1;align=center;verticalAlign=middle;whiteSpace=wrap;rounded=0;fontSize=18;" vertex="1" parent="1">
          <mxGeometry x="20" y="20" width="120" height="30" as="geometry" />
        </mxCell>
        <mxCell id="JU1ljmJUh9Om__ZYhvz9-10" value="" style="edgeStyle=orthogonalEdgeStyle;rounded=0;orthogonalLoop=1;jettySize=auto;html=1;" edge="1" parent="1" source="JU1ljmJUh9Om__ZYhvz9-3" target="JU1ljmJUh9Om__ZYhvz9-1">
          <mxGeometry relative="1" as="geometry" />
        </mxCell>
        <mxCell id="JU1ljmJUh9Om__ZYhvz9-3" value="Control message" style="rounded=1;whiteSpace=wrap;html=1;fillColor=#fff2cc;strokeColor=#d6b656;fontSize=18;" vertex="1" parent="1">
          <mxGeometry x="320" y="100" width="120" height="60" as="geometry" />
        </mxCell>
        <mxCell id="JU1ljmJUh9Om__ZYhvz9-8" value="" style="edgeStyle=orthogonalEdgeStyle;rounded=0;orthogonalLoop=1;jettySize=auto;html=1;" edge="1" parent="1" source="JU1ljmJUh9Om__ZYhvz9-4" target="JU1ljmJUh9Om__ZYhvz9-7">
          <mxGeometry relative="1" as="geometry" />
        </mxCell>
        <mxCell id="JU1ljmJUh9Om__ZYhvz9-4" value="Input string" style="rounded=1;whiteSpace=wrap;html=1;fillColor=#f8cecc;strokeColor=#b85450;fontSize=18;" vertex="1" parent="1">
          <mxGeometry x="40" y="100" width="120" height="60" as="geometry" />
        </mxCell>
        <mxCell id="JU1ljmJUh9Om__ZYhvz9-9" value="" style="edgeStyle=orthogonalEdgeStyle;rounded=0;orthogonalLoop=1;jettySize=auto;html=1;" edge="1" parent="1" source="JU1ljmJUh9Om__ZYhvz9-7" target="JU1ljmJUh9Om__ZYhvz9-3">
          <mxGeometry relative="1" as="geometry" />
        </mxCell>
        <mxCell id="JU1ljmJUh9Om__ZYhvz9-7" value="Parse input" style="rounded=1;whiteSpace=wrap;html=1;fillColor=#dae8fc;strokeColor=#6c8ebf;fontSize=18;" vertex="1" parent="1">
          <mxGeometry x="180" y="100" width="120" height="60" as="geometry" />
        </mxCell>
      </root>
    </mxGraphModel>
  </diagram>
</mxfile>
